<svg width="25" height="24" viewBox="0 0 25 24" fill="none" xmlns="http://www.w3.org/2000/svg">
<path d="M6.27856 18.3175V19.2652C6.27856 19.5337 6.18273 19.7588 5.99106 19.9404C5.7994 20.1221 5.5619 20.2129 5.27856 20.2129H4.27856C3.99523 20.2129 3.75773 20.1221 3.56606 19.9404C3.3744 19.7588 3.27856 19.5337 3.27856 19.2652V11.6837L5.37856 5.9975C5.47856 5.71319 5.65773 5.48416 5.91606 5.31042C6.1744 5.13668 6.4619 5.0498 6.77856 5.0498H17.7786C18.0952 5.0498 18.3827 5.13668 18.6411 5.31042C18.8994 5.48416 19.0786 5.71319 19.1786 5.9975L21.2786 11.6837V19.2652C21.2786 19.5337 21.1827 19.7588 20.9911 19.9404C20.7994 20.1221 20.5619 20.2129 20.2786 20.2129H19.2786C18.9952 20.2129 18.7577 20.1221 18.5661 19.9404C18.3744 19.7588 18.2786 19.5337 18.2786 19.2652V18.3175H6.27856ZM6.07856 9.78827H18.4786L17.4286 6.94519H7.12856L6.07856 9.78827ZM7.77856 15.4744C8.19523 15.4744 8.5494 15.3362 8.84106 15.0598C9.13273 14.7834 9.27856 14.4478 9.27856 14.0529C9.27856 13.658 9.13273 13.3224 8.84106 13.046C8.5494 12.7695 8.19523 12.6313 7.77856 12.6313C7.3619 12.6313 7.00773 12.7695 6.71606 13.046C6.4244 13.3224 6.27856 13.658 6.27856 14.0529C6.27856 14.4478 6.4244 14.7834 6.71606 15.0598C7.00773 15.3362 7.3619 15.4744 7.77856 15.4744ZM16.7786 15.4744C17.1952 15.4744 17.5494 15.3362 17.8411 15.0598C18.1327 14.7834 18.2786 14.4478 18.2786 14.0529C18.2786 13.658 18.1327 13.3224 17.8411 13.046C17.5494 12.7695 17.1952 12.6313 16.7786 12.6313C16.3619 12.6313 16.0077 12.7695 15.7161 13.046C15.4244 13.3224 15.2786 13.658 15.2786 14.0529C15.2786 14.4478 15.4244 14.7834 15.7161 15.0598C16.0077 15.3362 16.3619 15.4744 16.7786 15.4744ZM5.27856 16.4221H19.2786V11.6837H5.27856V16.4221Z" fill="#1D1B20"/>
</svg>
